<?xml version="1.0" encoding="UTF-8" standalone="no"?>
<!DOCTYPE svg PUBLIC "-//W3C//DTD SVG 1.1//EN"
 "http://www.w3.org/Graphics/SVG/1.1/DTD/svg11.dtd">
<!-- Generated by graphviz version 2.43.0 (0)
 -->
<!-- Title: slips.modules.template.template.Module Pages: 1 -->
<svg width="223pt" height="93pt"
 viewBox="0.00 0.00 222.50 93.00" xmlns="http://www.w3.org/2000/svg" xmlns:xlink="http://www.w3.org/1999/xlink">
<g id="graph0" class="graph" transform="scale(1 1) rotate(0) translate(4 89)">
<title>slips.modules.template.template.Module</title>
<!-- Node1 -->
<g id="node1" class="node">
<title>Node1</title>
<g id="a_node1"><a xlink:title=" ">
<polygon fill="#999999" stroke="#666666" points="182,-30 0,-30 0,0 182,0 182,-30"/>
<text text-anchor="start" x="8" y="-18" font-family="Helvetica,sans-Serif" font-size="10.00">slips.modules.template.template.</text>
<text text-anchor="middle" x="91" y="-7" font-family="Helvetica,sans-Serif" font-size="10.00">Module</text>
</a>
</g>
</g>
<!-- Node2 -->
<g id="node2" class="node">
<title>Node2</title>
<g id="a_node2"><a xlink:title=" ">
<polygon fill="white" stroke="#666666" points="61.5,-85 8.5,-85 8.5,-66 61.5,-66 61.5,-85"/>
<text text-anchor="middle" x="35" y="-73" font-family="Helvetica,sans-Serif" font-size="10.00">Module</text>
</a>
</g>
</g>
<!-- Node2&#45;&gt;Node1 -->
<g id="edge1" class="edge">
<title>Node2&#45;&gt;Node1</title>
<path fill="none" stroke="#63b8ff" d="M50.39,-58.43C58.88,-49.56 69.32,-38.65 77.49,-30.11"/>
<polygon fill="#63b8ff" stroke="#63b8ff" points="47.65,-56.22 43.26,-65.87 52.71,-61.06 47.65,-56.22"/>
</g>
<!-- Node3 -->
<g id="node3" class="node">
<title>Node3</title>
<g id="a_node3"><a xlink:title=" ">
<polygon fill="white" stroke="#666666" points="214.5,-85 79.5,-85 79.5,-66 214.5,-66 214.5,-85"/>
<text text-anchor="middle" x="147" y="-73" font-family="Helvetica,sans-Serif" font-size="10.00">multiprocessing.Process</text>
</a>
</g>
</g>
<!-- Node3&#45;&gt;Node1 -->
<g id="edge2" class="edge">
<title>Node3&#45;&gt;Node1</title>
<path fill="none" stroke="#63b8ff" d="M131.61,-58.43C123.12,-49.56 112.68,-38.65 104.51,-30.11"/>
<polygon fill="#63b8ff" stroke="#63b8ff" points="129.29,-61.06 138.74,-65.87 134.35,-56.22 129.29,-61.06"/>
</g>
</g>
</svg>
