<?xml version="1.0" encoding="UTF-8" standalone="no"?>
<!DOCTYPE svg PUBLIC "-//W3C//DTD SVG 1.1//EN"
 "http://www.w3.org/Graphics/SVG/1.1/DTD/svg11.dtd">
<!-- Generated by graphviz version 2.43.0 (0)
 -->
<!-- Title: slips.slips_files.core.database.database.Database Pages: 1 -->
<svg width="278pt" height="159pt"
 viewBox="0.00 0.00 277.50 159.00" xmlns="http://www.w3.org/2000/svg" xmlns:xlink="http://www.w3.org/1999/xlink">
<g id="graph0" class="graph" transform="scale(1 1) rotate(0) translate(4 155)">
<title>slips.slips_files.core.database.database.Database</title>
<!-- Node1 -->
<g id="node1" class="node">
<title>Node1</title>
<g id="a_node1"><a xlink:title=" ">
<polygon fill="#999999" stroke="#666666" points="214,-30 0,-30 0,0 214,0 214,-30"/>
<text text-anchor="start" x="8" y="-18" font-family="Helvetica,sans-Serif" font-size="10.00">slips.slips_files.core.database.database.</text>
<text text-anchor="middle" x="107" y="-7" font-family="Helvetica,sans-Serif" font-size="10.00">Database</text>
</a>
</g>
</g>
<!-- Node2 -->
<g id="node2" class="node">
<title>Node2</title>
<g id="a_node2"><a xlink:href="classslips_1_1slips__files_1_1core_1_1database_1_1__profile__flow_1_1_profiling_flows_database.html" target="_top" xlink:title=" ">
<polygon fill="white" stroke="#666666" points="269.5,-96 72.5,-96 72.5,-66 269.5,-66 269.5,-96"/>
<text text-anchor="start" x="80.5" y="-84" font-family="Helvetica,sans-Serif" font-size="10.00">slips.slips_files.core.database.</text>
<text text-anchor="middle" x="171" y="-73" font-family="Helvetica,sans-Serif" font-size="10.00">_profile_flow.ProfilingFlowsDatabase</text>
</a>
</g>
</g>
<!-- Node2&#45;&gt;Node1 -->
<g id="edge1" class="edge">
<title>Node2&#45;&gt;Node1</title>
<path fill="none" stroke="#63b8ff" d="M149.65,-58.65C140.27,-49.27 129.53,-38.53 121.16,-30.16"/>
<polygon fill="#63b8ff" stroke="#63b8ff" points="147.25,-61.2 156.8,-65.8 152.2,-56.25 147.25,-61.2"/>
</g>
<!-- Node3 -->
<g id="node3" class="node">
<title>Node3</title>
<g id="a_node3"><a xlink:title=" ">
<polygon fill="white" stroke="#666666" points="130.5,-151 83.5,-151 83.5,-132 130.5,-132 130.5,-151"/>
<text text-anchor="middle" x="107" y="-139" font-family="Helvetica,sans-Serif" font-size="10.00">object</text>
</a>
</g>
</g>
<!-- Node3&#45;&gt;Node1 -->
<g id="edge3" class="edge">
<title>Node3&#45;&gt;Node1</title>
<path fill="none" stroke="#63b8ff" d="M86.76,-125.57C78,-117.84 68.69,-107.59 64,-96 59,-83.64 59.36,-78.5 64,-66 69.18,-52.04 80.18,-39.37 89.77,-30.27"/>
<polygon fill="#63b8ff" stroke="#63b8ff" points="84.56,-128.29 94.51,-131.93 89,-122.88 84.56,-128.29"/>
</g>
<!-- Node3&#45;&gt;Node2 -->
<g id="edge2" class="edge">
<title>Node3&#45;&gt;Node2</title>
<path fill="none" stroke="#63b8ff" d="M123.99,-124.97C133.8,-116.01 146.03,-104.82 155.56,-96.11"/>
<polygon fill="#63b8ff" stroke="#63b8ff" points="121.46,-122.54 116.44,-131.87 126.19,-127.7 121.46,-122.54"/>
</g>
</g>
</svg>
