<?xml version="1.0" encoding="UTF-8" standalone="no"?>
<!DOCTYPE svg PUBLIC "-//W3C//DTD SVG 1.1//EN"
 "http://www.w3.org/Graphics/SVG/1.1/DTD/svg11.dtd">
<!-- Generated by graphviz version 2.43.0 (0)
 -->
<!-- Title: slips.modules.http_analyzer.http_analyzer.Module Pages: 1 -->
<svg width="218pt" height="93pt"
 viewBox="0.00 0.00 218.00 93.00" xmlns="http://www.w3.org/2000/svg" xmlns:xlink="http://www.w3.org/1999/xlink">
<g id="graph0" class="graph" transform="scale(1 1) rotate(0) translate(4 89)">
<title>slips.modules.http_analyzer.http_analyzer.Module</title>
<!-- Node1 -->
<g id="node1" class="node">
<title>Node1</title>
<g id="a_node1"><a xlink:title=" ">
<polygon fill="#999999" stroke="#666666" points="173,-30 0,-30 0,0 173,0 173,-30"/>
<text text-anchor="start" x="8" y="-18" font-family="Helvetica,sans-Serif" font-size="10.00">slips.modules.http</text>
<text text-anchor="middle" x="86.5" y="-7" font-family="Helvetica,sans-Serif" font-size="10.00">_analyzer.http_analyzer.Module</text>
</a>
</g>
</g>
<!-- Node2 -->
<g id="node2" class="node">
<title>Node2</title>
<g id="a_node2"><a xlink:title=" ">
<polygon fill="white" stroke="#666666" points="57,-85 4,-85 4,-66 57,-66 57,-85"/>
<text text-anchor="middle" x="30.5" y="-73" font-family="Helvetica,sans-Serif" font-size="10.00">Module</text>
</a>
</g>
</g>
<!-- Node2&#45;&gt;Node1 -->
<g id="edge1" class="edge">
<title>Node2&#45;&gt;Node1</title>
<path fill="none" stroke="#63b8ff" d="M45.89,-58.43C54.38,-49.56 64.82,-38.65 72.99,-30.11"/>
<polygon fill="#63b8ff" stroke="#63b8ff" points="43.15,-56.22 38.76,-65.87 48.21,-61.06 43.15,-56.22"/>
</g>
<!-- Node3 -->
<g id="node3" class="node">
<title>Node3</title>
<g id="a_node3"><a xlink:title=" ">
<polygon fill="white" stroke="#666666" points="210,-85 75,-85 75,-66 210,-66 210,-85"/>
<text text-anchor="middle" x="142.5" y="-73" font-family="Helvetica,sans-Serif" font-size="10.00">multiprocessing.Process</text>
</a>
</g>
</g>
<!-- Node3&#45;&gt;Node1 -->
<g id="edge2" class="edge">
<title>Node3&#45;&gt;Node1</title>
<path fill="none" stroke="#63b8ff" d="M127.11,-58.43C118.62,-49.56 108.18,-38.65 100.01,-30.11"/>
<polygon fill="#63b8ff" stroke="#63b8ff" points="124.79,-61.06 134.24,-65.87 129.85,-56.22 124.79,-61.06"/>
</g>
</g>
</svg>
