<?xml version="1.0" encoding="UTF-8" standalone="no"?>
<!DOCTYPE svg PUBLIC "-//W3C//DTD SVG 1.1//EN"
 "http://www.w3.org/Graphics/SVG/1.1/DTD/svg11.dtd">
<!-- Generated by graphviz version 2.43.0 (0)
 -->
<!-- Title: slips.modules.ensembling.ensembling.Module Pages: 1 -->
<svg width="235pt" height="93pt"
 viewBox="0.00 0.00 235.00 93.00" xmlns="http://www.w3.org/2000/svg" xmlns:xlink="http://www.w3.org/1999/xlink">
<g id="graph0" class="graph" transform="scale(1 1) rotate(0) translate(4 89)">
<title>slips.modules.ensembling.ensembling.Module</title>
<!-- Node1 -->
<g id="node1" class="node">
<title>Node1</title>
<g id="a_node1"><a xlink:title=" ">
<polygon fill="#999999" stroke="#666666" points="207,-30 0,-30 0,0 207,0 207,-30"/>
<text text-anchor="start" x="8" y="-18" font-family="Helvetica,sans-Serif" font-size="10.00">slips.modules.ensembling.ensembling.</text>
<text text-anchor="middle" x="103.5" y="-7" font-family="Helvetica,sans-Serif" font-size="10.00">Module</text>
</a>
</g>
</g>
<!-- Node2 -->
<g id="node2" class="node">
<title>Node2</title>
<g id="a_node2"><a xlink:title=" ">
<polygon fill="white" stroke="#666666" points="74,-85 21,-85 21,-66 74,-66 74,-85"/>
<text text-anchor="middle" x="47.5" y="-73" font-family="Helvetica,sans-Serif" font-size="10.00">Module</text>
</a>
</g>
</g>
<!-- Node2&#45;&gt;Node1 -->
<g id="edge1" class="edge">
<title>Node2&#45;&gt;Node1</title>
<path fill="none" stroke="#63b8ff" d="M62.89,-58.43C71.38,-49.56 81.82,-38.65 89.99,-30.11"/>
<polygon fill="#63b8ff" stroke="#63b8ff" points="60.15,-56.22 55.76,-65.87 65.21,-61.06 60.15,-56.22"/>
</g>
<!-- Node3 -->
<g id="node3" class="node">
<title>Node3</title>
<g id="a_node3"><a xlink:title=" ">
<polygon fill="white" stroke="#666666" points="227,-85 92,-85 92,-66 227,-66 227,-85"/>
<text text-anchor="middle" x="159.5" y="-73" font-family="Helvetica,sans-Serif" font-size="10.00">multiprocessing.Process</text>
</a>
</g>
</g>
<!-- Node3&#45;&gt;Node1 -->
<g id="edge2" class="edge">
<title>Node3&#45;&gt;Node1</title>
<path fill="none" stroke="#63b8ff" d="M144.11,-58.43C135.62,-49.56 125.18,-38.65 117.01,-30.11"/>
<polygon fill="#63b8ff" stroke="#63b8ff" points="141.79,-61.06 151.24,-65.87 146.85,-56.22 141.79,-61.06"/>
</g>
</g>
</svg>
