<?xml version="1.0" encoding="UTF-8" standalone="no"?>
<!DOCTYPE svg PUBLIC "-//W3C//DTD SVG 1.1//EN"
 "http://www.w3.org/Graphics/SVG/1.1/DTD/svg11.dtd">
<!-- Generated by graphviz version 2.43.0 (0)
 -->
<!-- Title: slips.modules.virustotal.virustotal.Module Pages: 1 -->
<svg width="225pt" height="93pt"
 viewBox="0.00 0.00 224.50 93.00" xmlns="http://www.w3.org/2000/svg" xmlns:xlink="http://www.w3.org/1999/xlink">
<g id="graph0" class="graph" transform="scale(1 1) rotate(0) translate(4 89)">
<title>slips.modules.virustotal.virustotal.Module</title>
<!-- Node1 -->
<g id="node1" class="node">
<title>Node1</title>
<g id="a_node1"><a xlink:title=" ">
<polygon fill="#999999" stroke="#666666" points="186,-30 0,-30 0,0 186,0 186,-30"/>
<text text-anchor="start" x="8" y="-18" font-family="Helvetica,sans-Serif" font-size="10.00">slips.modules.virustotal.virustotal.</text>
<text text-anchor="middle" x="93" y="-7" font-family="Helvetica,sans-Serif" font-size="10.00">Module</text>
</a>
</g>
</g>
<!-- Node2 -->
<g id="node2" class="node">
<title>Node2</title>
<g id="a_node2"><a xlink:title=" ">
<polygon fill="white" stroke="#666666" points="63.5,-85 10.5,-85 10.5,-66 63.5,-66 63.5,-85"/>
<text text-anchor="middle" x="37" y="-73" font-family="Helvetica,sans-Serif" font-size="10.00">Module</text>
</a>
</g>
</g>
<!-- Node2&#45;&gt;Node1 -->
<g id="edge1" class="edge">
<title>Node2&#45;&gt;Node1</title>
<path fill="none" stroke="#63b8ff" d="M52.39,-58.43C60.88,-49.56 71.32,-38.65 79.49,-30.11"/>
<polygon fill="#63b8ff" stroke="#63b8ff" points="49.65,-56.22 45.26,-65.87 54.71,-61.06 49.65,-56.22"/>
</g>
<!-- Node3 -->
<g id="node3" class="node">
<title>Node3</title>
<g id="a_node3"><a xlink:title=" ">
<polygon fill="white" stroke="#666666" points="216.5,-85 81.5,-85 81.5,-66 216.5,-66 216.5,-85"/>
<text text-anchor="middle" x="149" y="-73" font-family="Helvetica,sans-Serif" font-size="10.00">multiprocessing.Process</text>
</a>
</g>
</g>
<!-- Node3&#45;&gt;Node1 -->
<g id="edge2" class="edge">
<title>Node3&#45;&gt;Node1</title>
<path fill="none" stroke="#63b8ff" d="M133.61,-58.43C125.12,-49.56 114.68,-38.65 106.51,-30.11"/>
<polygon fill="#63b8ff" stroke="#63b8ff" points="131.29,-61.06 140.74,-65.87 136.35,-56.22 131.29,-61.06"/>
</g>
</g>
</svg>
