<?xml version="1.0" encoding="UTF-8" standalone="no"?>
<!DOCTYPE svg PUBLIC "-//W3C//DTD SVG 1.1//EN"
 "http://www.w3.org/Graphics/SVG/1.1/DTD/svg11.dtd">
<!-- Generated by graphviz version 2.43.0 (0)
 -->
<!-- Title: slips.slips_files.core.database._profile_flow.ProfilingFlowsDatabase Pages: 1 -->
<svg width="222pt" height="159pt"
 viewBox="0.00 0.00 222.00 159.00" xmlns="http://www.w3.org/2000/svg" xmlns:xlink="http://www.w3.org/1999/xlink">
<g id="graph0" class="graph" transform="scale(1 1) rotate(0) translate(4 155)">
<title>slips.slips_files.core.database._profile_flow.ProfilingFlowsDatabase</title>
<!-- Node1 -->
<g id="node1" class="node">
<title>Node1</title>
<g id="a_node1"><a xlink:title=" ">
<polygon fill="#999999" stroke="#666666" points="205.5,-96 8.5,-96 8.5,-66 205.5,-66 205.5,-96"/>
<text text-anchor="start" x="16.5" y="-84" font-family="Helvetica,sans-Serif" font-size="10.00">slips.slips_files.core.database.</text>
<text text-anchor="middle" x="107" y="-73" font-family="Helvetica,sans-Serif" font-size="10.00">_profile_flow.ProfilingFlowsDatabase</text>
</a>
</g>
</g>
<!-- Node3 -->
<g id="node3" class="node">
<title>Node3</title>
<g id="a_node3"><a xlink:href="classslips_1_1slips__files_1_1core_1_1database_1_1database_1_1_database.html" target="_top" xlink:title=" ">
<polygon fill="white" stroke="#666666" points="214,-30 0,-30 0,0 214,0 214,-30"/>
<text text-anchor="start" x="8" y="-18" font-family="Helvetica,sans-Serif" font-size="10.00">slips.slips_files.core.database.database.</text>
<text text-anchor="middle" x="107" y="-7" font-family="Helvetica,sans-Serif" font-size="10.00">Database</text>
</a>
</g>
</g>
<!-- Node1&#45;&gt;Node3 -->
<g id="edge2" class="edge">
<title>Node1&#45;&gt;Node3</title>
<path fill="none" stroke="#63b8ff" d="M107,-55.54C107,-46.96 107,-37.61 107,-30.16"/>
<polygon fill="#63b8ff" stroke="#63b8ff" points="103.5,-55.8 107,-65.8 110.5,-55.8 103.5,-55.8"/>
</g>
<!-- Node2 -->
<g id="node2" class="node">
<title>Node2</title>
<g id="a_node2"><a xlink:title=" ">
<polygon fill="white" stroke="#666666" points="130.5,-151 83.5,-151 83.5,-132 130.5,-132 130.5,-151"/>
<text text-anchor="middle" x="107" y="-139" font-family="Helvetica,sans-Serif" font-size="10.00">object</text>
</a>
</g>
</g>
<!-- Node2&#45;&gt;Node1 -->
<g id="edge1" class="edge">
<title>Node2&#45;&gt;Node1</title>
<path fill="none" stroke="#63b8ff" d="M107,-121.65C107,-113.36 107,-103.78 107,-96.11"/>
<polygon fill="#63b8ff" stroke="#63b8ff" points="103.5,-121.87 107,-131.87 110.5,-121.87 103.5,-121.87"/>
</g>
</g>
</svg>
