<?xml version="1.0" encoding="UTF-8" standalone="no"?>
<!DOCTYPE svg PUBLIC "-//W3C//DTD SVG 1.1//EN"
 "http://www.w3.org/Graphics/SVG/1.1/DTD/svg11.dtd">
<!-- Generated by graphviz version 2.43.0 (0)
 -->
<!-- Title: slips.modules.flowmldetection.flowmldetection.Module Pages: 1 -->
<svg width="260pt" height="93pt"
 viewBox="0.00 0.00 260.00 93.00" xmlns="http://www.w3.org/2000/svg" xmlns:xlink="http://www.w3.org/1999/xlink">
<g id="graph0" class="graph" transform="scale(1 1) rotate(0) translate(4 89)">
<title>slips.modules.flowmldetection.flowmldetection.Module</title>
<!-- Node1 -->
<g id="node1" class="node">
<title>Node1</title>
<g id="a_node1"><a xlink:title=" ">
<polygon fill="#999999" stroke="#666666" points="252,-30 0,-30 0,0 252,0 252,-30"/>
<text text-anchor="start" x="8" y="-18" font-family="Helvetica,sans-Serif" font-size="10.00">slips.modules.flowmldetection.flowmldetection.</text>
<text text-anchor="middle" x="126" y="-7" font-family="Helvetica,sans-Serif" font-size="10.00">Module</text>
</a>
</g>
</g>
<!-- Node2 -->
<g id="node2" class="node">
<title>Node2</title>
<g id="a_node2"><a xlink:title=" ">
<polygon fill="white" stroke="#666666" points="96.5,-85 43.5,-85 43.5,-66 96.5,-66 96.5,-85"/>
<text text-anchor="middle" x="70" y="-73" font-family="Helvetica,sans-Serif" font-size="10.00">Module</text>
</a>
</g>
</g>
<!-- Node2&#45;&gt;Node1 -->
<g id="edge1" class="edge">
<title>Node2&#45;&gt;Node1</title>
<path fill="none" stroke="#63b8ff" d="M85.39,-58.43C93.88,-49.56 104.32,-38.65 112.49,-30.11"/>
<polygon fill="#63b8ff" stroke="#63b8ff" points="82.65,-56.22 78.26,-65.87 87.71,-61.06 82.65,-56.22"/>
</g>
<!-- Node3 -->
<g id="node3" class="node">
<title>Node3</title>
<g id="a_node3"><a xlink:title=" ">
<polygon fill="white" stroke="#666666" points="249.5,-85 114.5,-85 114.5,-66 249.5,-66 249.5,-85"/>
<text text-anchor="middle" x="182" y="-73" font-family="Helvetica,sans-Serif" font-size="10.00">multiprocessing.Process</text>
</a>
</g>
</g>
<!-- Node3&#45;&gt;Node1 -->
<g id="edge2" class="edge">
<title>Node3&#45;&gt;Node1</title>
<path fill="none" stroke="#63b8ff" d="M166.61,-58.43C158.12,-49.56 147.68,-38.65 139.51,-30.11"/>
<polygon fill="#63b8ff" stroke="#63b8ff" points="164.29,-61.06 173.74,-65.87 169.35,-56.22 164.29,-61.06"/>
</g>
</g>
</svg>
