<?xml version="1.0" encoding="UTF-8" standalone="no"?>
<!DOCTYPE svg PUBLIC "-//W3C//DTD SVG 1.1//EN"
 "http://www.w3.org/Graphics/SVG/1.1/DTD/svg11.dtd">
<!-- Generated by graphviz version 2.43.0 (0)
 -->
<!-- Title: slips.modules.rnn&#45;cc&#45;detection.rnn&#45;cc&#45;detection.Module Pages: 1 -->
<svg width="214pt" height="104pt"
 viewBox="0.00 0.00 214.00 104.00" xmlns="http://www.w3.org/2000/svg" xmlns:xlink="http://www.w3.org/1999/xlink">
<g id="graph0" class="graph" transform="scale(1 1) rotate(0) translate(4 100)">
<title>slips.modules.rnn&#45;cc&#45;detection.rnn&#45;cc&#45;detection.Module</title>
<!-- Node1 -->
<g id="node1" class="node">
<title>Node1</title>
<g id="a_node1"><a xlink:title=" ">
<polygon fill="#999999" stroke="#666666" points="158.5,-41 6.5,-41 6.5,0 158.5,0 158.5,-41"/>
<text text-anchor="start" x="14.5" y="-29" font-family="Helvetica,sans-Serif" font-size="10.00">slips.modules.rnn&#45;cc</text>
<text text-anchor="start" x="14.5" y="-18" font-family="Helvetica,sans-Serif" font-size="10.00">&#45;detection.rnn&#45;cc&#45;detection.</text>
<text text-anchor="middle" x="82.5" y="-7" font-family="Helvetica,sans-Serif" font-size="10.00">Module</text>
</a>
</g>
</g>
<!-- Node2 -->
<g id="node2" class="node">
<title>Node2</title>
<g id="a_node2"><a xlink:title=" ">
<polygon fill="white" stroke="#666666" points="53,-96 0,-96 0,-77 53,-77 53,-96"/>
<text text-anchor="middle" x="26.5" y="-84" font-family="Helvetica,sans-Serif" font-size="10.00">Module</text>
</a>
</g>
</g>
<!-- Node2&#45;&gt;Node1 -->
<g id="edge1" class="edge">
<title>Node2&#45;&gt;Node1</title>
<path fill="none" stroke="#63b8ff" d="M40.86,-69.09C48.35,-60.53 57.57,-49.99 65.43,-41.01"/>
<polygon fill="#63b8ff" stroke="#63b8ff" points="38,-67.04 34.05,-76.87 43.27,-71.65 38,-67.04"/>
</g>
<!-- Node3 -->
<g id="node3" class="node">
<title>Node3</title>
<g id="a_node3"><a xlink:title=" ">
<polygon fill="white" stroke="#666666" points="206,-96 71,-96 71,-77 206,-77 206,-96"/>
<text text-anchor="middle" x="138.5" y="-84" font-family="Helvetica,sans-Serif" font-size="10.00">multiprocessing.Process</text>
</a>
</g>
</g>
<!-- Node3&#45;&gt;Node1 -->
<g id="edge2" class="edge">
<title>Node3&#45;&gt;Node1</title>
<path fill="none" stroke="#63b8ff" d="M124.14,-69.09C116.65,-60.53 107.43,-49.99 99.57,-41.01"/>
<polygon fill="#63b8ff" stroke="#63b8ff" points="121.73,-71.65 130.95,-76.87 127,-67.04 121.73,-71.65"/>
</g>
</g>
</svg>
