<?xml version="1.0" encoding="UTF-8" standalone="no"?>
<!DOCTYPE svg PUBLIC "-//W3C//DTD SVG 1.1//EN"
 "http://www.w3.org/Graphics/SVG/1.1/DTD/svg11.dtd">
<!-- Generated by graphviz version 2.43.0 (0)
 -->
<!-- Title: Graphical Class Hierarchy Pages: 1 -->
<svg width="538pt" height="165pt"
 viewBox="0.00 0.00 538.00 165.33" xmlns="http://www.w3.org/2000/svg" xmlns:xlink="http://www.w3.org/1999/xlink">
<g id="graph0" class="graph" transform="scale(1 1) rotate(0) translate(4 161.33)">
<title>Graphical Class Hierarchy</title>
<!-- Node0 -->
<g id="node1" class="node">
<title>Node0</title>
<g id="a_node1"><a xlink:title=" ">
<polygon fill="#e0e0e0" stroke="#999999" points="47,-79.83 0,-79.83 0,-60.83 47,-60.83 47,-79.83"/>
<text text-anchor="middle" x="23.5" y="-67.83" font-family="Helvetica,sans-Serif" font-size="10.00">object</text>
</a>
</g>
</g>
<!-- Node1 -->
<g id="node2" class="node">
<title>Node1</title>
<g id="a_node2"><a xlink:href="classslips_1_1modules_1_1_c_e_s_n_e_t_1_1warden__client_1_1_client.html" target="_top" xlink:title=" ">
<polygon fill="white" stroke="#666666" points="263,-157.33 100,-157.33 100,-127.33 263,-127.33 263,-157.33"/>
<text text-anchor="start" x="108" y="-145.33" font-family="Helvetica,sans-Serif" font-size="10.00">slips.modules.CESNET.warden</text>
<text text-anchor="middle" x="181.5" y="-134.33" font-family="Helvetica,sans-Serif" font-size="10.00">_client.Client</text>
</a>
</g>
</g>
<!-- Node0&#45;&gt;Node1 -->
<g id="edge1" class="edge">
<title>Node0&#45;&gt;Node1</title>
<path fill="none" stroke="#63b8ff" d="M40.68,-87C51.7,-97.44 67.12,-110.38 83,-118.33 89.86,-121.77 97.24,-124.73 104.76,-127.28"/>
<polygon fill="#63b8ff" stroke="#63b8ff" points="43.08,-84.45 33.49,-79.95 38.18,-89.45 43.08,-84.45"/>
</g>
<!-- Node2 -->
<g id="node3" class="node">
<title>Node2</title>
<g id="a_node3"><a xlink:href="classslips_1_1slips__files_1_1common_1_1slips__utils_1_1_utils.html" target="_top" xlink:title=" ">
<polygon fill="white" stroke="#666666" points="262.5,-109.33 100.5,-109.33 100.5,-79.33 262.5,-79.33 262.5,-109.33"/>
<text text-anchor="start" x="108.5" y="-97.33" font-family="Helvetica,sans-Serif" font-size="10.00">slips.slips_files.common.slips</text>
<text text-anchor="middle" x="181.5" y="-86.33" font-family="Helvetica,sans-Serif" font-size="10.00">_utils.Utils</text>
</a>
</g>
</g>
<!-- Node0&#45;&gt;Node2 -->
<g id="edge2" class="edge">
<title>Node0&#45;&gt;Node2</title>
<path fill="none" stroke="#63b8ff" d="M57.24,-75.37C69.95,-77.33 85.12,-79.66 100.4,-82.01"/>
<polygon fill="#63b8ff" stroke="#63b8ff" points="57.6,-71.89 47.18,-73.82 56.54,-78.8 57.6,-71.89"/>
</g>
<!-- Node3 -->
<g id="node4" class="node">
<title>Node3</title>
<g id="a_node4"><a xlink:href="classslips_1_1slips__files_1_1core_1_1database_1_1__profile__flow_1_1_profiling_flows_database.html" target="_top" xlink:title=" ">
<polygon fill="white" stroke="#666666" points="280,-61.33 83,-61.33 83,-31.33 280,-31.33 280,-61.33"/>
<text text-anchor="start" x="91" y="-49.33" font-family="Helvetica,sans-Serif" font-size="10.00">slips.slips_files.core.database.</text>
<text text-anchor="middle" x="181.5" y="-38.33" font-family="Helvetica,sans-Serif" font-size="10.00">_profile_flow.ProfilingFlowsDatabase</text>
</a>
</g>
</g>
<!-- Node0&#45;&gt;Node3 -->
<g id="edge3" class="edge">
<title>Node0&#45;&gt;Node3</title>
<path fill="none" stroke="#63b8ff" d="M57.21,-65.3C65.02,-64.1 73.76,-62.76 82.88,-61.35"/>
<polygon fill="#63b8ff" stroke="#63b8ff" points="56.54,-61.86 47.18,-66.84 57.6,-68.78 56.54,-61.86"/>
</g>
<!-- Node4 -->
<g id="node5" class="node">
<title>Node4</title>
<g id="a_node5"><a xlink:href="classslips_1_1slips__files_1_1core_1_1database_1_1database_1_1_database.html" target="_top" xlink:title=" ">
<polygon fill="white" stroke="#666666" points="530,-39.33 316,-39.33 316,-9.33 530,-9.33 530,-39.33"/>
<text text-anchor="start" x="324" y="-27.33" font-family="Helvetica,sans-Serif" font-size="10.00">slips.slips_files.core.database.database.</text>
<text text-anchor="middle" x="423" y="-16.33" font-family="Helvetica,sans-Serif" font-size="10.00">Database</text>
</a>
</g>
</g>
<!-- Node0&#45;&gt;Node4 -->
<g id="edge5" class="edge">
<title>Node0&#45;&gt;Node4</title>
<path fill="none" stroke="#63b8ff" d="M39.35,-53.13C50.17,-41.99 65.88,-28.46 83,-22.33 168.89,8.39 275.05,1.18 345.45,-9.3"/>
<polygon fill="#63b8ff" stroke="#63b8ff" points="36.6,-50.96 32.39,-60.68 41.74,-55.7 36.6,-50.96"/>
</g>
<!-- Node3&#45;&gt;Node4 -->
<g id="edge4" class="edge">
<title>Node3&#45;&gt;Node4</title>
<path fill="none" stroke="#63b8ff" d="M290.25,-36.44C298.8,-35.65 307.44,-34.86 315.97,-34.07"/>
<polygon fill="#63b8ff" stroke="#63b8ff" points="289.9,-32.95 280.26,-37.35 290.54,-39.93 289.9,-32.95"/>
</g>
</g>
</svg>
