<?xml version="1.0" encoding="UTF-8" standalone="no"?>
<!DOCTYPE svg PUBLIC "-//W3C//DTD SVG 1.1//EN"
 "http://www.w3.org/Graphics/SVG/1.1/DTD/svg11.dtd">
<!-- Generated by graphviz version 2.43.0 (0)
 -->
<!-- Title: Graphical Class Hierarchy Pages: 1 -->
<svg width="287pt" height="86pt"
 viewBox="0.00 0.00 287.00 86.00" xmlns="http://www.w3.org/2000/svg" xmlns:xlink="http://www.w3.org/1999/xlink">
<g id="graph0" class="graph" transform="scale(1 1) rotate(0) translate(4 82)">
<title>Graphical Class Hierarchy</title>
<!-- Node0 -->
<g id="node1" class="node">
<title>Node0</title>
<g id="a_node1"><a xlink:title=" ">
<polygon fill="#e0e0e0" stroke="#999999" points="100,-48.5 0,-48.5 0,-29.5 100,-29.5 100,-48.5"/>
<text text-anchor="middle" x="50" y="-36.5" font-family="Helvetica,sans-Serif" font-size="10.00">threading.Thread</text>
</a>
</g>
</g>
<!-- Node1 -->
<g id="node2" class="node">
<title>Node1</title>
<g id="a_node2"><a xlink:href="classslips_1_1modules_1_1flowalerts_1_1_timer_thread_1_1_timer_thread.html" target="_top" xlink:title=" ">
<polygon fill="white" stroke="#666666" points="279,-78 136,-78 136,-48 279,-48 279,-78"/>
<text text-anchor="start" x="144" y="-66" font-family="Helvetica,sans-Serif" font-size="10.00">slips.modules.flowalerts.</text>
<text text-anchor="middle" x="207.5" y="-55" font-family="Helvetica,sans-Serif" font-size="10.00">TimerThread.TimerThread</text>
</a>
</g>
</g>
<!-- Node0&#45;&gt;Node1 -->
<g id="edge1" class="edge">
<title>Node0&#45;&gt;Node1</title>
<path fill="none" stroke="#63b8ff" d="M110.21,-48.14C118.56,-49.43 127.21,-50.76 135.75,-52.08"/>
<polygon fill="#63b8ff" stroke="#63b8ff" points="110.62,-44.66 100.2,-46.59 109.55,-51.58 110.62,-44.66"/>
</g>
<!-- Node2 -->
<g id="node3" class="node">
<title>Node2</title>
<g id="a_node3"><a xlink:href="classslips_1_1slips__files_1_1core_1_1logs_process_1_1_timer_thread.html" target="_top" xlink:title=" ">
<polygon fill="white" stroke="#666666" points="276.5,-30 138.5,-30 138.5,0 276.5,0 276.5,-30"/>
<text text-anchor="start" x="146.5" y="-18" font-family="Helvetica,sans-Serif" font-size="10.00">slips.slips_files.core.logs</text>
<text text-anchor="middle" x="207.5" y="-7" font-family="Helvetica,sans-Serif" font-size="10.00">Process.TimerThread</text>
</a>
</g>
</g>
<!-- Node0&#45;&gt;Node2 -->
<g id="edge2" class="edge">
<title>Node0&#45;&gt;Node2</title>
<path fill="none" stroke="#63b8ff" d="M110.34,-29.84C119.48,-28.43 128.98,-26.96 138.3,-25.53"/>
<polygon fill="#63b8ff" stroke="#63b8ff" points="109.55,-26.42 100.2,-31.41 110.62,-33.34 109.55,-26.42"/>
</g>
</g>
</svg>
