<?xml version="1.0" encoding="UTF-8" standalone="no"?>
<!DOCTYPE svg PUBLIC "-//W3C//DTD SVG 1.1//EN"
 "http://www.w3.org/Graphics/SVG/1.1/DTD/svg11.dtd">
<!-- Generated by graphviz version 2.43.0 (0)
 -->
<!-- Title: Graphical Class Hierarchy Pages: 1 -->
<svg width="431pt" height="1227pt"
 viewBox="0.00 0.00 431.00 1227.00" xmlns="http://www.w3.org/2000/svg" xmlns:xlink="http://www.w3.org/1999/xlink">
<g id="graph0" class="graph" transform="scale(1 1) rotate(0) translate(4 1223)">
<title>Graphical Class Hierarchy</title>
<!-- Node0 -->
<g id="node1" class="node">
<title>Node0</title>
<g id="a_node1"><a xlink:title=" ">
<polygon fill="#e0e0e0" stroke="#999999" points="135,-623.5 0,-623.5 0,-604.5 135,-604.5 135,-623.5"/>
<text text-anchor="middle" x="67.5" y="-611.5" font-family="Helvetica,sans-Serif" font-size="10.00">multiprocessing.Process</text>
</a>
</g>
</g>
<!-- Node1 -->
<g id="node2" class="node">
<title>Node1</title>
<g id="a_node2"><a xlink:href="classslips_1_1modules_1_1_c_e_s_n_e_t_1_1_c_e_s_n_e_t_1_1_module.html" target="_top" xlink:title=" ">
<polygon fill="white" stroke="#666666" points="380.5,-955 213.5,-955 213.5,-925 380.5,-925 380.5,-955"/>
<text text-anchor="start" x="221.5" y="-943" font-family="Helvetica,sans-Serif" font-size="10.00">slips.modules.CESNET.CESNET.</text>
<text text-anchor="middle" x="297" y="-932" font-family="Helvetica,sans-Serif" font-size="10.00">Module</text>
</a>
</g>
</g>
<!-- Node0&#45;&gt;Node1 -->
<g id="edge1" class="edge">
<title>Node0&#45;&gt;Node1</title>
<path fill="none" stroke="#63b8ff" d="M80.37,-632.22C95.27,-655.89 120.61,-698.94 135,-739 162.13,-814.55 113.93,-859.55 171,-916 182.47,-927.34 197.56,-934.17 213.28,-938.13"/>
<polygon fill="#63b8ff" stroke="#63b8ff" points="83.19,-630.14 74.86,-623.6 77.29,-633.91 83.19,-630.14"/>
</g>
<!-- Node3 -->
<g id="node3" class="node">
<title>Node3</title>
<g id="a_node3"><a xlink:href="classslips_1_1modules_1_1_risk_i_q_1_1_risk_i_q_1_1_module.html" target="_top" xlink:title=" ">
<polygon fill="white" stroke="#666666" points="368.5,-907 225.5,-907 225.5,-877 368.5,-877 368.5,-907"/>
<text text-anchor="start" x="233.5" y="-895" font-family="Helvetica,sans-Serif" font-size="10.00">slips.modules.RiskIQ.Risk</text>
<text text-anchor="middle" x="297" y="-884" font-family="Helvetica,sans-Serif" font-size="10.00">IQ.Module</text>
</a>
</g>
</g>
<!-- Node0&#45;&gt;Node3 -->
<g id="edge2" class="edge">
<title>Node0&#45;&gt;Node3</title>
<path fill="none" stroke="#63b8ff" d="M79.92,-632.39C94.35,-656.24 119.19,-699.48 135,-739 157.11,-794.27 127.21,-827.68 171,-868 185.71,-881.55 205.64,-888.51 225.27,-891.86"/>
<polygon fill="#63b8ff" stroke="#63b8ff" points="82.81,-630.4 74.6,-623.69 76.84,-634.05 82.81,-630.4"/>
</g>
<!-- Node4 -->
<g id="node4" class="node">
<title>Node4</title>
<g id="a_node4"><a xlink:href="classslips_1_1modules_1_1arp_1_1arp_1_1_module.html" target="_top" xlink:title=" ">
<polygon fill="white" stroke="#666666" points="377.5,-858.5 216.5,-858.5 216.5,-839.5 377.5,-839.5 377.5,-858.5"/>
<text text-anchor="middle" x="297" y="-846.5" font-family="Helvetica,sans-Serif" font-size="10.00">slips.modules.arp.arp.Module</text>
</a>
</g>
</g>
<!-- Node0&#45;&gt;Node4 -->
<g id="edge3" class="edge">
<title>Node0&#45;&gt;Node4</title>
<path fill="none" stroke="#63b8ff" d="M79.07,-632.3C92.78,-656.37 117.06,-700.17 135,-739 153.24,-778.48 136.97,-802.91 171,-830 183.88,-840.26 199.94,-846.13 216.21,-849.32"/>
<polygon fill="#63b8ff" stroke="#63b8ff" points="82.06,-630.47 74.05,-623.54 75.99,-633.95 82.06,-630.47"/>
</g>
<!-- Node5 -->
<g id="node5" class="node">
<title>Node5</title>
<g id="a_node5"><a xlink:href="classslips_1_1modules_1_1blocking_1_1blocking_1_1_module.html" target="_top" xlink:title=" ">
<polygon fill="white" stroke="#666666" points="385,-821 209,-821 209,-791 385,-791 385,-821"/>
<text text-anchor="start" x="217" y="-809" font-family="Helvetica,sans-Serif" font-size="10.00">slips.modules.blocking.blocking.</text>
<text text-anchor="middle" x="297" y="-798" font-family="Helvetica,sans-Serif" font-size="10.00">Module</text>
</a>
</g>
</g>
<!-- Node0&#45;&gt;Node5 -->
<g id="edge4" class="edge">
<title>Node0&#45;&gt;Node5</title>
<path fill="none" stroke="#63b8ff" d="M77.68,-633.13C97.19,-672.96 143.23,-762.75 171,-782 182.26,-789.81 195.4,-795.24 208.84,-798.99"/>
<polygon fill="#63b8ff" stroke="#63b8ff" points="80.74,-631.4 73.22,-623.94 74.44,-634.46 80.74,-631.4"/>
</g>
<!-- Node6 -->
<g id="node6" class="node">
<title>Node6</title>
<g id="a_node6"><a xlink:href="classslips_1_1modules_1_1ensembling_1_1ensembling_1_1_module.html" target="_top" xlink:title=" ">
<polygon fill="white" stroke="#666666" points="400.5,-773 193.5,-773 193.5,-743 400.5,-743 400.5,-773"/>
<text text-anchor="start" x="201.5" y="-761" font-family="Helvetica,sans-Serif" font-size="10.00">slips.modules.ensembling.ensembling.</text>
<text text-anchor="middle" x="297" y="-750" font-family="Helvetica,sans-Serif" font-size="10.00">Module</text>
</a>
</g>
</g>
<!-- Node0&#45;&gt;Node6 -->
<g id="edge5" class="edge">
<title>Node0&#45;&gt;Node6</title>
<path fill="none" stroke="#63b8ff" d="M78.75,-632.53C94.72,-659.52 128.18,-709.1 171,-734 177.97,-738.06 185.5,-741.44 193.28,-744.27"/>
<polygon fill="#63b8ff" stroke="#63b8ff" points="81.7,-630.63 73.68,-623.7 75.63,-634.12 81.7,-630.63"/>
</g>
<!-- Node7 -->
<g id="node7" class="node">
<title>Node7</title>
<g id="a_node7"><a xlink:href="classslips_1_1modules_1_1exporting__alerts_1_1exporting__alerts_1_1_module.html" target="_top" xlink:title=" ">
<polygon fill="white" stroke="#666666" points="382.5,-725 211.5,-725 211.5,-695 382.5,-695 382.5,-725"/>
<text text-anchor="start" x="219.5" y="-713" font-family="Helvetica,sans-Serif" font-size="10.00">slips.modules.exporting</text>
<text text-anchor="middle" x="297" y="-702" font-family="Helvetica,sans-Serif" font-size="10.00">_alerts.exporting_alerts.Module</text>
</a>
</g>
</g>
<!-- Node0&#45;&gt;Node7 -->
<g id="edge6" class="edge">
<title>Node0&#45;&gt;Node7</title>
<path fill="none" stroke="#63b8ff" d="M86.68,-630.42C106.13,-647.06 138.56,-672.25 171,-686 183.61,-691.35 197.45,-695.51 211.18,-698.76"/>
<polygon fill="#63b8ff" stroke="#63b8ff" points="88.78,-627.61 78.95,-623.66 84.17,-632.88 88.78,-627.61"/>
</g>
<!-- Node8 -->
<g id="node8" class="node">
<title>Node8</title>
<g id="a_node8"><a xlink:href="classslips_1_1modules_1_1flowalerts_1_1flowalerts_1_1_module.html" target="_top" xlink:title=" ">
<polygon fill="white" stroke="#666666" points="392.5,-677 201.5,-677 201.5,-647 392.5,-647 392.5,-677"/>
<text text-anchor="start" x="209.5" y="-665" font-family="Helvetica,sans-Serif" font-size="10.00">slips.modules.flowalerts.flowalerts.</text>
<text text-anchor="middle" x="297" y="-654" font-family="Helvetica,sans-Serif" font-size="10.00">Module</text>
</a>
</g>
</g>
<!-- Node0&#45;&gt;Node8 -->
<g id="edge7" class="edge">
<title>Node0&#45;&gt;Node8</title>
<path fill="none" stroke="#63b8ff" d="M117.99,-626.01C134.79,-629.98 153.68,-634.31 171,-638 185.26,-641.04 200.48,-644.1 215.21,-646.98"/>
<polygon fill="#63b8ff" stroke="#63b8ff" points="118.38,-622.51 107.84,-623.6 116.76,-629.32 118.38,-622.51"/>
</g>
<!-- Node9 -->
<g id="node9" class="node">
<title>Node9</title>
<g id="a_node9"><a xlink:href="classslips_1_1modules_1_1flowmldetection_1_1flowmldetection_1_1_module.html" target="_top" xlink:title=" ">
<polygon fill="white" stroke="#666666" points="423,-629 171,-629 171,-599 423,-599 423,-629"/>
<text text-anchor="start" x="179" y="-617" font-family="Helvetica,sans-Serif" font-size="10.00">slips.modules.flowmldetection.flowmldetection.</text>
<text text-anchor="middle" x="297" y="-606" font-family="Helvetica,sans-Serif" font-size="10.00">Module</text>
</a>
</g>
</g>
<!-- Node0&#45;&gt;Node9 -->
<g id="edge8" class="edge">
<title>Node0&#45;&gt;Node9</title>
<path fill="none" stroke="#63b8ff" d="M145.45,-614C153.65,-614 162.14,-614 170.72,-614"/>
<polygon fill="#63b8ff" stroke="#63b8ff" points="145.22,-610.5 135.22,-614 145.22,-617.5 145.22,-610.5"/>
</g>
<!-- Node10 -->
<g id="node10" class="node">
<title>Node10</title>
<g id="a_node10"><a xlink:href="classslips_1_1modules_1_1http__analyzer_1_1http__analyzer_1_1_module.html" target="_top" xlink:title=" ">
<polygon fill="white" stroke="#666666" points="383.5,-581 210.5,-581 210.5,-551 383.5,-551 383.5,-581"/>
<text text-anchor="start" x="218.5" y="-569" font-family="Helvetica,sans-Serif" font-size="10.00">slips.modules.http</text>
<text text-anchor="middle" x="297" y="-558" font-family="Helvetica,sans-Serif" font-size="10.00">_analyzer.http_analyzer.Module</text>
</a>
</g>
</g>
<!-- Node0&#45;&gt;Node10 -->
<g id="edge9" class="edge">
<title>Node0&#45;&gt;Node10</title>
<path fill="none" stroke="#63b8ff" d="M117.99,-601.99C134.79,-598.02 153.68,-593.69 171,-590 185.26,-586.96 200.48,-583.9 215.21,-581.02"/>
<polygon fill="#63b8ff" stroke="#63b8ff" points="116.76,-598.68 107.84,-604.4 118.38,-605.49 116.76,-598.68"/>
</g>
<!-- Node11 -->
<g id="node11" class="node">
<title>Node11</title>
<g id="a_node11"><a xlink:href="classslips_1_1modules_1_1ip__info_1_1ip__info_1_1_module.html" target="_top" xlink:title=" ">
<polygon fill="white" stroke="#666666" points="363,-533 231,-533 231,-503 363,-503 363,-533"/>
<text text-anchor="start" x="239" y="-521" font-family="Helvetica,sans-Serif" font-size="10.00">slips.modules.ip_info.ip</text>
<text text-anchor="middle" x="297" y="-510" font-family="Helvetica,sans-Serif" font-size="10.00">_info.Module</text>
</a>
</g>
</g>
<!-- Node0&#45;&gt;Node11 -->
<g id="edge10" class="edge">
<title>Node0&#45;&gt;Node11</title>
<path fill="none" stroke="#63b8ff" d="M86.68,-597.58C106.13,-580.94 138.56,-555.75 171,-542 189.72,-534.06 211.12,-528.73 230.87,-525.16"/>
<polygon fill="#63b8ff" stroke="#63b8ff" points="84.17,-595.12 78.95,-604.34 88.78,-600.39 84.17,-595.12"/>
</g>
<!-- Node12 -->
<g id="node12" class="node">
<title>Node12</title>
<g id="a_node12"><a xlink:href="classslips_1_1modules_1_1leak__detector_1_1leak__detector_1_1_module.html" target="_top" xlink:title=" ">
<polygon fill="white" stroke="#666666" points="382.5,-485 211.5,-485 211.5,-455 382.5,-455 382.5,-485"/>
<text text-anchor="start" x="219.5" y="-473" font-family="Helvetica,sans-Serif" font-size="10.00">slips.modules.leak</text>
<text text-anchor="middle" x="297" y="-462" font-family="Helvetica,sans-Serif" font-size="10.00">_detector.leak_detector.Module</text>
</a>
</g>
</g>
<!-- Node0&#45;&gt;Node12 -->
<g id="edge11" class="edge">
<title>Node0&#45;&gt;Node12</title>
<path fill="none" stroke="#63b8ff" d="M78.75,-595.47C94.72,-568.48 128.18,-518.9 171,-494 183.32,-486.83 197.37,-481.76 211.49,-478.17"/>
<polygon fill="#63b8ff" stroke="#63b8ff" points="75.63,-593.88 73.68,-604.3 81.7,-597.37 75.63,-593.88"/>
</g>
<!-- Node13 -->
<g id="node13" class="node">
<title>Node13</title>
<g id="a_node13"><a xlink:href="classslips_1_1modules_1_1p2ptrust_1_1p2ptrust_1_1_trust.html" target="_top" xlink:title=" ">
<polygon fill="white" stroke="#666666" points="384,-437 210,-437 210,-407 384,-407 384,-437"/>
<text text-anchor="start" x="218" y="-425" font-family="Helvetica,sans-Serif" font-size="10.00">slips.modules.p2ptrust.p2ptrust.</text>
<text text-anchor="middle" x="297" y="-414" font-family="Helvetica,sans-Serif" font-size="10.00">Trust</text>
</a>
</g>
</g>
<!-- Node0&#45;&gt;Node13 -->
<g id="edge12" class="edge">
<title>Node0&#45;&gt;Node13</title>
<path fill="none" stroke="#63b8ff" d="M74.38,-594.83C86.35,-559.29 117.06,-483.41 171,-446 182.53,-438 196.03,-432.5 209.82,-428.74"/>
<polygon fill="#63b8ff" stroke="#63b8ff" points="71.01,-593.88 71.27,-604.48 77.67,-596.04 71.01,-593.88"/>
</g>
<!-- Node14 -->
<g id="node14" class="node">
<title>Node14</title>
<g id="a_node14"><a xlink:href="classslips_1_1modules_1_1portscan__detector_1_1portscan__detector_1_1_port_scan_process.html" target="_top" xlink:title=" ">
<polygon fill="white" stroke="#666666" points="375,-388.5 219,-388.5 219,-347.5 375,-347.5 375,-388.5"/>
<text text-anchor="start" x="227" y="-376.5" font-family="Helvetica,sans-Serif" font-size="10.00">slips.modules.portscan</text>
<text text-anchor="start" x="227" y="-365.5" font-family="Helvetica,sans-Serif" font-size="10.00">_detector.portscan_detector.</text>
<text text-anchor="middle" x="297" y="-354.5" font-family="Helvetica,sans-Serif" font-size="10.00">PortScanProcess</text>
</a>
</g>
</g>
<!-- Node0&#45;&gt;Node14 -->
<g id="edge13" class="edge">
<title>Node0&#45;&gt;Node14</title>
<path fill="none" stroke="#63b8ff" d="M71.92,-594.51C80.45,-551.9 106.79,-450.1 171,-398 184.69,-386.89 201.84,-379.78 219,-375.26"/>
<polygon fill="#63b8ff" stroke="#63b8ff" points="68.46,-593.96 70.04,-604.44 75.34,-595.26 68.46,-593.96"/>
</g>
<!-- Node15 -->
<g id="node15" class="node">
<title>Node15</title>
<g id="a_node15"><a xlink:href="classslips_1_1modules_1_1rnn-cc-detection_1_1rnn-cc-detection_1_1_module.html" target="_top" xlink:title=" ">
<polygon fill="white" stroke="#666666" points="373,-329.5 221,-329.5 221,-288.5 373,-288.5 373,-329.5"/>
<text text-anchor="start" x="229" y="-317.5" font-family="Helvetica,sans-Serif" font-size="10.00">slips.modules.rnn&#45;cc</text>
<text text-anchor="start" x="229" y="-306.5" font-family="Helvetica,sans-Serif" font-size="10.00">&#45;detection.rnn&#45;cc&#45;detection.</text>
<text text-anchor="middle" x="297" y="-295.5" font-family="Helvetica,sans-Serif" font-size="10.00">Module</text>
</a>
</g>
</g>
<!-- Node0&#45;&gt;Node15 -->
<g id="edge14" class="edge">
<title>Node0&#45;&gt;Node15</title>
<path fill="none" stroke="#63b8ff" d="M69.69,-594.11C73.84,-543.22 92.14,-407.38 171,-338 184.88,-325.79 202.9,-318.44 220.92,-314.1"/>
<polygon fill="#63b8ff" stroke="#63b8ff" points="66.17,-594.16 68.95,-604.39 73.16,-594.66 66.17,-594.16"/>
</g>
<!-- Node16 -->
<g id="node16" class="node">
<title>Node16</title>
<g id="a_node16"><a xlink:href="classslips_1_1modules_1_1template_1_1template_1_1_module.html" target="_top" xlink:title=" ">
<polygon fill="white" stroke="#666666" points="388,-1219 206,-1219 206,-1189 388,-1189 388,-1219"/>
<text text-anchor="start" x="214" y="-1207" font-family="Helvetica,sans-Serif" font-size="10.00">slips.modules.template.template.</text>
<text text-anchor="middle" x="297" y="-1196" font-family="Helvetica,sans-Serif" font-size="10.00">Module</text>
</a>
</g>
</g>
<!-- Node0&#45;&gt;Node16 -->
<g id="edge15" class="edge">
<title>Node0&#45;&gt;Node16</title>
<path fill="none" stroke="#63b8ff" d="M81.16,-632.02C96.86,-655.44 123.03,-698.18 135,-739 162.66,-833.35 105.34,-1106.81 171,-1180 180.3,-1190.36 192.59,-1197.08 205.84,-1201.31"/>
<polygon fill="#63b8ff" stroke="#63b8ff" points="84.05,-630.04 75.51,-623.76 78.27,-633.99 84.05,-630.04"/>
</g>
<!-- Node17 -->
<g id="node17" class="node">
<title>Node17</title>
<g id="a_node17"><a xlink:href="classslips_1_1modules_1_1threat__intelligence_1_1threat__intelligence_1_1_module.html" target="_top" xlink:title=" ">
<polygon fill="white" stroke="#666666" points="356,-1170.5 238,-1170.5 238,-1129.5 356,-1129.5 356,-1170.5"/>
<text text-anchor="start" x="246" y="-1158.5" font-family="Helvetica,sans-Serif" font-size="10.00">slips.modules.threat</text>
<text text-anchor="start" x="246" y="-1147.5" font-family="Helvetica,sans-Serif" font-size="10.00">_intelligence.threat</text>
<text text-anchor="middle" x="297" y="-1136.5" font-family="Helvetica,sans-Serif" font-size="10.00">_intelligence.Module</text>
</a>
</g>
</g>
<!-- Node0&#45;&gt;Node17 -->
<g id="edge16" class="edge">
<title>Node0&#45;&gt;Node17</title>
<path fill="none" stroke="#63b8ff" d="M81.28,-632.35C96.93,-655.87 122.83,-698.44 135,-739 159.45,-820.45 115.26,-1055.77 171,-1120 187.46,-1138.96 213.59,-1147.05 237.71,-1150.16"/>
<polygon fill="#63b8ff" stroke="#63b8ff" points="83.97,-630.09 75.46,-623.78 78.18,-634.02 83.97,-630.09"/>
</g>
<!-- Node18 -->
<g id="node18" class="node">
<title>Node18</title>
<g id="a_node18"><a xlink:href="classslips_1_1modules_1_1timeline_1_1timeline_1_1_module.html" target="_top" xlink:title=" ">
<polygon fill="white" stroke="#666666" points="384,-1111 210,-1111 210,-1081 384,-1081 384,-1111"/>
<text text-anchor="start" x="218" y="-1099" font-family="Helvetica,sans-Serif" font-size="10.00">slips.modules.timeline.timeline.</text>
<text text-anchor="middle" x="297" y="-1088" font-family="Helvetica,sans-Serif" font-size="10.00">Module</text>
</a>
</g>
</g>
<!-- Node0&#45;&gt;Node18 -->
<g id="edge17" class="edge">
<title>Node0&#45;&gt;Node18</title>
<path fill="none" stroke="#63b8ff" d="M81.2,-632.38C96.75,-655.92 122.55,-698.52 135,-739 156.88,-810.14 120.57,-1017.26 171,-1072 181.33,-1083.21 195.17,-1090.13 209.88,-1094.24"/>
<polygon fill="#63b8ff" stroke="#63b8ff" points="83.9,-630.13 75.41,-623.79 78.09,-634.04 83.9,-630.13"/>
</g>
<!-- Node19 -->
<g id="node19" class="node">
<title>Node19</title>
<g id="a_node19"><a xlink:href="classslips_1_1modules_1_1update__manager_1_1update__manager_1_1_update_manager.html" target="_top" xlink:title=" ">
<polygon fill="white" stroke="#666666" points="391.5,-1062.5 202.5,-1062.5 202.5,-1021.5 391.5,-1021.5 391.5,-1062.5"/>
<text text-anchor="start" x="210.5" y="-1050.5" font-family="Helvetica,sans-Serif" font-size="10.00">slips.modules.update</text>
<text text-anchor="start" x="210.5" y="-1039.5" font-family="Helvetica,sans-Serif" font-size="10.00">_manager.update_manager.Update</text>
<text text-anchor="middle" x="297" y="-1028.5" font-family="Helvetica,sans-Serif" font-size="10.00">Manager</text>
</a>
</g>
</g>
<!-- Node0&#45;&gt;Node19 -->
<g id="edge18" class="edge">
<title>Node0&#45;&gt;Node19</title>
<path fill="none" stroke="#63b8ff" d="M80.81,-632.07C96.18,-655.58 122.02,-698.47 135,-739 153.67,-797.27 130.05,-966.53 171,-1012 179.51,-1021.45 190.43,-1028.18 202.26,-1032.93"/>
<polygon fill="#63b8ff" stroke="#63b8ff" points="83.57,-629.9 75.11,-623.51 77.74,-633.77 83.57,-629.9"/>
</g>
<!-- Node20 -->
<g id="node20" class="node">
<title>Node20</title>
<g id="a_node20"><a xlink:href="classslips_1_1modules_1_1virustotal_1_1virustotal_1_1_module.html" target="_top" xlink:title=" ">
<polygon fill="white" stroke="#666666" points="390,-1003 204,-1003 204,-973 390,-973 390,-1003"/>
<text text-anchor="start" x="212" y="-991" font-family="Helvetica,sans-Serif" font-size="10.00">slips.modules.virustotal.virustotal.</text>
<text text-anchor="middle" x="297" y="-980" font-family="Helvetica,sans-Serif" font-size="10.00">Module</text>
</a>
</g>
</g>
<!-- Node0&#45;&gt;Node20 -->
<g id="edge19" class="edge">
<title>Node0&#45;&gt;Node20</title>
<path fill="none" stroke="#63b8ff" d="M80.63,-632.13C95.81,-655.7 121.46,-698.65 135,-739 167.22,-835.01 100.51,-891.29 171,-964 180.07,-973.36 191.61,-979.68 203.98,-983.87"/>
<polygon fill="#63b8ff" stroke="#63b8ff" points="83.42,-629.99 75.01,-623.54 77.56,-633.83 83.42,-629.99"/>
</g>
<!-- Node21 -->
<g id="node21" class="node">
<title>Node21</title>
<g id="a_node21"><a xlink:href="classslips_1_1slips__files_1_1core_1_1evidence_process_1_1_evidence_process.html" target="_top" xlink:title=" ">
<polygon fill="white" stroke="#666666" points="378,-126 216,-126 216,-96 378,-96 378,-126"/>
<text text-anchor="start" x="224" y="-114" font-family="Helvetica,sans-Serif" font-size="10.00">slips.slips_files.core.evidence</text>
<text text-anchor="middle" x="297" y="-103" font-family="Helvetica,sans-Serif" font-size="10.00">Process.EvidenceProcess</text>
</a>
</g>
</g>
<!-- Node0&#45;&gt;Node21 -->
<g id="edge20" class="edge">
<title>Node0&#45;&gt;Node21</title>
<path fill="none" stroke="#63b8ff" d="M69.91,-593.95C76.1,-511.64 103.67,-200.92 171,-135 183.16,-123.1 199.31,-116.18 215.96,-112.33"/>
<polygon fill="#63b8ff" stroke="#63b8ff" points="66.38,-594.15 69.15,-604.38 73.37,-594.66 66.38,-594.15"/>
</g>
<!-- Node22 -->
<g id="node22" class="node">
<title>Node22</title>
<g id="a_node22"><a xlink:href="classslips_1_1slips__files_1_1core_1_1gui_process_1_1_gui_process.html" target="_top" xlink:title=" ">
<polygon fill="white" stroke="#666666" points="363.5,-78 230.5,-78 230.5,-48 363.5,-48 363.5,-78"/>
<text text-anchor="start" x="238.5" y="-66" font-family="Helvetica,sans-Serif" font-size="10.00">slips.slips_files.core.gui</text>
<text text-anchor="middle" x="297" y="-55" font-family="Helvetica,sans-Serif" font-size="10.00">Process.GuiProcess</text>
</a>
</g>
</g>
<!-- Node0&#45;&gt;Node22 -->
<g id="edge21" class="edge">
<title>Node0&#45;&gt;Node22</title>
<path fill="none" stroke="#63b8ff" d="M69.47,-594.19C74.16,-507.26 97.27,-160.55 171,-87 186.57,-71.47 208.92,-64.39 230.42,-61.53"/>
<polygon fill="#63b8ff" stroke="#63b8ff" points="65.97,-594.12 68.95,-604.28 72.96,-594.48 65.97,-594.12"/>
</g>
<!-- Node23 -->
<g id="node23" class="node">
<title>Node23</title>
<g id="a_node23"><a xlink:href="classslips_1_1slips__files_1_1core_1_1input_process_1_1_input_process.html" target="_top" xlink:title=" ">
<polygon fill="white" stroke="#666666" points="368.5,-30 225.5,-30 225.5,0 368.5,0 368.5,-30"/>
<text text-anchor="start" x="233.5" y="-18" font-family="Helvetica,sans-Serif" font-size="10.00">slips.slips_files.core.input</text>
<text text-anchor="middle" x="297" y="-7" font-family="Helvetica,sans-Serif" font-size="10.00">Process.InputProcess</text>
</a>
</g>
</g>
<!-- Node0&#45;&gt;Node23 -->
<g id="edge22" class="edge">
<title>Node0&#45;&gt;Node23</title>
<path fill="none" stroke="#63b8ff" d="M69.13,-594.17C72.44,-502.44 90.92,-120.15 171,-39 185.28,-24.53 205.44,-17.36 225.41,-14.11"/>
<polygon fill="#63b8ff" stroke="#63b8ff" points="65.62,-594.19 68.78,-604.3 72.62,-594.43 65.62,-594.19"/>
</g>
<!-- Node24 -->
<g id="node24" class="node">
<title>Node24</title>
<g id="a_node24"><a xlink:href="classslips_1_1slips__files_1_1core_1_1logs_process_1_1_logs_process.html" target="_top" xlink:title=" ">
<polygon fill="white" stroke="#666666" points="366,-270 228,-270 228,-240 366,-240 366,-270"/>
<text text-anchor="start" x="236" y="-258" font-family="Helvetica,sans-Serif" font-size="10.00">slips.slips_files.core.logs</text>
<text text-anchor="middle" x="297" y="-247" font-family="Helvetica,sans-Serif" font-size="10.00">Process.LogsProcess</text>
</a>
</g>
</g>
<!-- Node0&#45;&gt;Node24 -->
<g id="edge23" class="edge">
<title>Node0&#45;&gt;Node24</title>
<path fill="none" stroke="#63b8ff" d="M68.04,-594.12C67.84,-535.91 75.75,-364.55 171,-279 186.45,-265.12 207.41,-258.2 227.75,-254.99"/>
<polygon fill="#63b8ff" stroke="#63b8ff" points="64.54,-594.52 68.17,-604.48 71.54,-594.43 64.54,-594.52"/>
</g>
<!-- Node25 -->
<g id="node25" class="node">
<title>Node25</title>
<g id="a_node25"><a xlink:href="classslips_1_1slips__files_1_1core_1_1output_process_1_1_output_process.html" target="_top" xlink:title=" ">
<polygon fill="white" stroke="#666666" points="371.5,-222 222.5,-222 222.5,-192 371.5,-192 371.5,-222"/>
<text text-anchor="start" x="230.5" y="-210" font-family="Helvetica,sans-Serif" font-size="10.00">slips.slips_files.core.output</text>
<text text-anchor="middle" x="297" y="-199" font-family="Helvetica,sans-Serif" font-size="10.00">Process.OutputProcess</text>
</a>
</g>
</g>
<!-- Node0&#45;&gt;Node25 -->
<g id="edge24" class="edge">
<title>Node0&#45;&gt;Node25</title>
<path fill="none" stroke="#63b8ff" d="M71.05,-593.98C80.56,-522.58 116.23,-281.97 171,-231 184.91,-218.05 203.58,-211.1 222.25,-207.57"/>
<polygon fill="#63b8ff" stroke="#63b8ff" points="67.53,-593.9 69.71,-604.27 74.47,-594.8 67.53,-593.9"/>
</g>
<!-- Node26 -->
<g id="node26" class="node">
<title>Node26</title>
<g id="a_node26"><a xlink:href="classslips_1_1slips__files_1_1core_1_1profiler_process_1_1_profiler_process.html" target="_top" xlink:title=" ">
<polygon fill="white" stroke="#666666" points="373.5,-174 220.5,-174 220.5,-144 373.5,-144 373.5,-174"/>
<text text-anchor="start" x="228.5" y="-162" font-family="Helvetica,sans-Serif" font-size="10.00">slips.slips_files.core.profiler</text>
<text text-anchor="middle" x="297" y="-151" font-family="Helvetica,sans-Serif" font-size="10.00">Process.ProfilerProcess</text>
</a>
</g>
</g>
<!-- Node0&#45;&gt;Node26 -->
<g id="edge25" class="edge">
<title>Node0&#45;&gt;Node26</title>
<path fill="none" stroke="#63b8ff" d="M70.41,-594.01C78.19,-517.06 109.96,-241.43 171,-183 184.33,-170.24 202.26,-163.25 220.38,-159.63"/>
<polygon fill="#63b8ff" stroke="#63b8ff" points="66.9,-593.93 69.41,-604.23 73.87,-594.62 66.9,-593.93"/>
</g>
<!-- Node2 -->
<g id="node27" class="node">
<title>Node2</title>
<g id="a_node27"><a xlink:title=" ">
<polygon fill="#e0e0e0" stroke="#999999" points="94,-767.5 41,-767.5 41,-748.5 94,-748.5 94,-767.5"/>
<text text-anchor="middle" x="67.5" y="-755.5" font-family="Helvetica,sans-Serif" font-size="10.00">Module</text>
</a>
</g>
</g>
<!-- Node2&#45;&gt;Node1 -->
<g id="edge26" class="edge">
<title>Node2&#45;&gt;Node1</title>
<path fill="none" stroke="#63b8ff" d="M75.25,-777.45C88.13,-811.45 119.6,-881.4 171,-916 183.56,-924.45 198.34,-930.1 213.27,-933.84"/>
<polygon fill="#63b8ff" stroke="#63b8ff" points="78.43,-775.95 71.72,-767.76 71.86,-778.35 78.43,-775.95"/>
</g>
<!-- Node2&#45;&gt;Node3 -->
<g id="edge27" class="edge">
<title>Node2&#45;&gt;Node3</title>
<path fill="none" stroke="#63b8ff" d="M79.86,-776.05C96.58,-801 130.29,-845.48 171,-868 187.44,-877.09 206.74,-882.79 225.19,-886.35"/>
<polygon fill="#63b8ff" stroke="#63b8ff" points="82.7,-774 74.3,-767.53 76.83,-777.82 82.7,-774"/>
</g>
<!-- Node2&#45;&gt;Node4 -->
<g id="edge28" class="edge">
<title>Node2&#45;&gt;Node4</title>
<path fill="none" stroke="#63b8ff" d="M86.27,-774.41C105.59,-791.25 138.12,-816.81 171,-830 185.16,-835.68 200.84,-839.68 216.18,-842.49"/>
<polygon fill="#63b8ff" stroke="#63b8ff" points="88.39,-771.62 78.6,-767.57 83.73,-776.84 88.39,-771.62"/>
</g>
<!-- Node2&#45;&gt;Node5 -->
<g id="edge29" class="edge">
<title>Node2&#45;&gt;Node5</title>
<path fill="none" stroke="#63b8ff" d="M103.91,-766.66C123.62,-771.39 148.62,-777.23 171,-782 185.26,-785.04 200.48,-788.1 215.21,-790.98"/>
<polygon fill="#63b8ff" stroke="#63b8ff" points="104.67,-763.25 94.13,-764.3 103.03,-770.05 104.67,-763.25"/>
</g>
<!-- Node2&#45;&gt;Node6 -->
<g id="edge30" class="edge">
<title>Node2&#45;&gt;Node6</title>
<path fill="none" stroke="#63b8ff" d="M104.23,-758C128.33,-758 161.44,-758 193.38,-758"/>
<polygon fill="#63b8ff" stroke="#63b8ff" points="104.15,-754.5 94.15,-758 104.15,-761.5 104.15,-754.5"/>
</g>
<!-- Node2&#45;&gt;Node7 -->
<g id="edge31" class="edge">
<title>Node2&#45;&gt;Node7</title>
<path fill="none" stroke="#63b8ff" d="M103.91,-749.34C123.62,-744.61 148.62,-738.77 171,-734 185.26,-730.96 200.48,-727.9 215.21,-725.02"/>
<polygon fill="#63b8ff" stroke="#63b8ff" points="103.03,-745.95 94.13,-751.7 104.67,-752.75 103.03,-745.95"/>
</g>
<!-- Node2&#45;&gt;Node8 -->
<g id="edge32" class="edge">
<title>Node2&#45;&gt;Node8</title>
<path fill="none" stroke="#63b8ff" d="M86.68,-741.58C106.13,-724.94 138.56,-699.75 171,-686 180.56,-681.95 190.83,-678.57 201.21,-675.76"/>
<polygon fill="#63b8ff" stroke="#63b8ff" points="84.17,-739.12 78.95,-748.34 88.78,-744.39 84.17,-739.12"/>
</g>
<!-- Node2&#45;&gt;Node9 -->
<g id="edge33" class="edge">
<title>Node2&#45;&gt;Node9</title>
<path fill="none" stroke="#63b8ff" d="M78.75,-739.47C94.72,-712.48 128.18,-662.9 171,-638 176.92,-634.56 183.24,-631.59 189.78,-629.05"/>
<polygon fill="#63b8ff" stroke="#63b8ff" points="75.63,-737.88 73.68,-748.3 81.7,-741.37 75.63,-737.88"/>
</g>
<!-- Node2&#45;&gt;Node10 -->
<g id="edge34" class="edge">
<title>Node2&#45;&gt;Node10</title>
<path fill="none" stroke="#63b8ff" d="M77.68,-738.87C97.19,-699.04 143.23,-609.25 171,-590 182.71,-581.88 196.46,-576.32 210.47,-572.56"/>
<polygon fill="#63b8ff" stroke="#63b8ff" points="74.44,-737.54 73.22,-748.06 80.74,-740.6 74.44,-737.54"/>
</g>
<!-- Node2&#45;&gt;Node11 -->
<g id="edge35" class="edge">
<title>Node2&#45;&gt;Node11</title>
<path fill="none" stroke="#63b8ff" d="M79.03,-739.53C92.7,-715.25 116.94,-671.07 135,-632 153.08,-592.9 137.77,-569.42 171,-542 187.62,-528.29 209.71,-521.54 230.69,-518.44"/>
<polygon fill="#63b8ff" stroke="#63b8ff" points="75.91,-737.95 74.03,-748.37 82,-741.39 75.91,-737.95"/>
</g>
<!-- Node2&#45;&gt;Node12 -->
<g id="edge36" class="edge">
<title>Node2&#45;&gt;Node12</title>
<path fill="none" stroke="#63b8ff" d="M80.02,-739.49C94.54,-715.48 119.5,-671.92 135,-632 157.95,-572.91 124.74,-537.33 171,-494 182.21,-483.5 196.55,-476.93 211.48,-472.94"/>
<polygon fill="#63b8ff" stroke="#63b8ff" points="76.9,-737.89 74.66,-748.25 82.86,-741.54 76.9,-737.89"/>
</g>
<!-- Node2&#45;&gt;Node13 -->
<g id="edge37" class="edge">
<title>Node2&#45;&gt;Node13</title>
<path fill="none" stroke="#63b8ff" d="M80.42,-739.64C95.38,-715.79 120.78,-672.4 135,-632 162.95,-552.57 111.42,-505.49 171,-446 181.63,-435.38 195.44,-428.71 209.98,-424.64"/>
<polygon fill="#63b8ff" stroke="#63b8ff" points="77.31,-738.02 74.89,-748.33 83.21,-741.77 77.31,-738.02"/>
</g>
<!-- Node2&#45;&gt;Node14 -->
<g id="edge38" class="edge">
<title>Node2&#45;&gt;Node14</title>
<path fill="none" stroke="#63b8ff" d="M80.67,-739.73C95.88,-715.96 121.56,-672.66 135,-632 168.01,-532.09 99.74,-475.42 171,-398 183.47,-384.45 200.88,-376.52 218.76,-371.99"/>
<polygon fill="#63b8ff" stroke="#63b8ff" points="77.56,-738.09 75.03,-748.38 83.42,-741.91 77.56,-738.09"/>
</g>
<!-- Node2&#45;&gt;Node15 -->
<g id="edge39" class="edge">
<title>Node2&#45;&gt;Node15</title>
<path fill="none" stroke="#63b8ff" d="M80.86,-739.79C96.29,-716.09 122.19,-672.87 135,-632 154.69,-569.19 126.99,-386.95 171,-338 183.81,-323.75 202.12,-315.81 220.79,-311.53"/>
<polygon fill="#63b8ff" stroke="#63b8ff" points="77.75,-738.15 75.15,-748.42 83.59,-742.01 77.75,-738.15"/>
</g>
<!-- Node2&#45;&gt;Node16 -->
<g id="edge40" class="edge">
<title>Node2&#45;&gt;Node16</title>
<path fill="none" stroke="#63b8ff" d="M70.48,-777.58C78.49,-852.94 111.03,-1122.87 171,-1180 180.76,-1189.3 192.97,-1195.53 205.9,-1199.62"/>
<polygon fill="#63b8ff" stroke="#63b8ff" points="73.95,-777.15 69.44,-767.57 66.99,-777.88 73.95,-777.15"/>
</g>
<!-- Node2&#45;&gt;Node17 -->
<g id="edge41" class="edge">
<title>Node2&#45;&gt;Node17</title>
<path fill="none" stroke="#63b8ff" d="M67.7,-777.63C66.36,-838.22 70.98,-1023.94 171,-1120 188.79,-1137.08 214.51,-1145.01 238,-1148.5"/>
<polygon fill="#63b8ff" stroke="#63b8ff" points="71.2,-777.64 68.01,-767.54 64.2,-777.42 71.2,-777.64"/>
</g>
<!-- Node2&#45;&gt;Node18 -->
<g id="edge42" class="edge">
<title>Node2&#45;&gt;Node18</title>
<path fill="none" stroke="#63b8ff" d="M68.5,-777.75C69.65,-833.42 81.04,-992.7 171,-1072 181.94,-1081.64 195.55,-1087.91 209.72,-1091.9"/>
<polygon fill="#63b8ff" stroke="#63b8ff" points="72,-777.47 68.39,-767.51 65,-777.55 72,-777.47"/>
</g>
<!-- Node2&#45;&gt;Node19 -->
<g id="edge43" class="edge">
<title>Node2&#45;&gt;Node19</title>
<path fill="none" stroke="#63b8ff" d="M70.4,-777.57C76.13,-825.38 97.64,-948.77 171,-1012 180.13,-1019.87 190.97,-1025.75 202.39,-1030.14"/>
<polygon fill="#63b8ff" stroke="#63b8ff" points="73.88,-777.16 69.31,-767.6 66.92,-777.93 73.88,-777.16"/>
</g>
<!-- Node2&#45;&gt;Node20 -->
<g id="edge44" class="edge">
<title>Node2&#45;&gt;Node20</title>
<path fill="none" stroke="#63b8ff" d="M72.22,-777.65C81.18,-819.24 108.05,-916.21 171,-964 180.68,-971.35 191.97,-976.65 203.73,-980.44"/>
<polygon fill="#63b8ff" stroke="#63b8ff" points="75.62,-776.8 70.19,-767.69 68.76,-778.19 75.62,-776.8"/>
</g>
</g>
</svg>
